# xmcd
#
# Track frame offsets:
#	188
#	15188
#	27788
#	41813
#	53288
#	66113
#	81713
#	96713
#	106088
#	114563
#	130163
#	145688
#	158138
#
# Disc length: 2252 seconds
#
# Revision: 1
# Processed by: cddbd v1.5.2PL0 Copyright (c) Steve Scherf et al.
# Submitted via: audiograbber 1.83.01
#
DISCID=a408ca0d
DTITLE=Various Artist - Greatest Hits Of Country CD2
DYEAR=1999
DGENRE=Country
TTITLE0=Merle Haggard - Folsom Prison Blues
TTITLE1=Johnny Rodriguez - Love With All Your Heart
TTITLE2=George Jones - I Always Get Lucky With You
TTITLE3=Johnny Cash - Big River
TTITLE4=Patsy Cline - Just a Closer Walk With Thee
TTITLE5=Jack Scott - Blues Stay Away From Me
TTITLE6=Lonnie Donegan - Tom Dooley
TTITLE7=Jerry Lee Lewis - Set My Mind At Easy
TTITLE8=Duane Eddy - Theme From Dixie
TTITLE9=Merle Haggard - T.V. Blues
TTITLE10=Margo Smith - You Light Up My Life
TTITLE11=Frankie Lane - High Noon
TTITLE12=Guy Mitchel - Singing The Blues
EXTD=
EXTT0=
EXTT1=
EXTT2=
EXTT3=
EXTT4=
EXTT5=
EXTT6=
EXTT7=
EXTT8=
EXTT9=
EXTT10=
EXTT11=
EXTT12=
PLAYORDER=
